<svg width="230" height="73" viewBox="0 0 230 73" fill="none" xmlns="http://www.w3.org/2000/svg">
<path d="M91.008 45.008C91.712 45.008 92.384 44.992 93.024 44.96C93.664 44.928 94.176 44.88 94.56 44.816V39.392C94.272 39.328 93.84 39.264 93.264 39.2C92.688 39.136 92.16 39.104 91.68 39.104C91.008 39.104 90.368 39.152 89.76 39.248C89.184 39.312 88.672 39.456 88.224 39.68C87.776 39.904 87.424 40.208 87.168 40.592C86.912 40.976 86.784 41.456 86.784 42.032C86.784 43.152 87.152 43.936 87.888 44.384C88.656 44.8 89.696 45.008 91.008 45.008ZM90.432 24.08C92.544 24.08 94.304 24.32 95.712 24.8C97.12 25.28 98.24 25.968 99.072 26.864C99.936 27.76 100.544 28.848 100.896 30.128C101.248 31.408 101.424 32.832 101.424 34.4V49.28C100.4 49.504 98.976 49.76 97.152 50.048C95.328 50.368 93.12 50.528 90.528 50.528C88.896 50.528 87.408 50.384 86.064 50.096C84.752 49.808 83.616 49.344 82.656 48.704C81.696 48.032 80.96 47.168 80.448 46.112C79.936 45.056 79.68 43.76 79.68 42.224C79.68 40.752 79.968 39.504 80.544 38.48C81.152 37.456 81.952 36.64 82.944 36.032C83.936 35.424 85.072 34.992 86.352 34.736C87.632 34.448 88.96 34.304 90.336 34.304C91.264 34.304 92.08 34.352 92.784 34.448C93.52 34.512 94.112 34.608 94.56 34.736V34.064C94.56 32.848 94.192 31.872 93.456 31.136C92.72 30.4 91.44 30.032 89.616 30.032C88.4 30.032 87.2 30.128 86.016 30.32C84.832 30.48 83.808 30.72 82.944 31.04L82.032 25.28C82.448 25.152 82.96 25.024 83.568 24.896C84.208 24.736 84.896 24.608 85.632 24.512C86.368 24.384 87.136 24.288 87.936 24.224C88.768 24.128 89.6 24.08 90.432 24.08ZM113.987 37.184C113.987 39.392 114.483 41.168 115.475 42.512C116.467 43.856 117.939 44.528 119.891 44.528C120.531 44.528 121.123 44.512 121.667 44.48C122.211 44.416 122.659 44.352 123.011 44.288V31.28C122.563 30.992 121.971 30.752 121.235 30.56C120.531 30.368 119.811 30.272 119.075 30.272C115.683 30.272 113.987 32.576 113.987 37.184ZM130.163 49.184C129.523 49.376 128.787 49.568 127.955 49.76C127.123 49.92 126.243 50.064 125.315 50.192C124.419 50.32 123.491 50.416 122.531 50.48C121.603 50.576 120.707 50.624 119.843 50.624C117.763 50.624 115.907 50.32 114.275 49.712C112.643 49.104 111.267 48.24 110.147 47.12C109.027 45.968 108.163 44.592 107.555 42.992C106.979 41.36 106.691 39.536 106.691 37.52C106.691 35.472 106.947 33.632 107.459 32C107.971 30.336 108.707 28.928 109.667 27.776C110.627 26.624 111.795 25.744 113.171 25.136C114.579 24.528 116.179 24.224 117.971 24.224C118.963 24.224 119.843 24.32 120.611 24.512C121.411 24.704 122.211 24.976 123.011 25.328V13.904L130.163 12.752V49.184ZM146.508 45.008C147.212 45.008 147.884 44.992 148.524 44.96C149.164 44.928 149.676 44.88 150.06 44.816V39.392C149.772 39.328 149.34 39.264 148.764 39.2C148.188 39.136 147.66 39.104 147.18 39.104C146.508 39.104 145.868 39.152 145.26 39.248C144.684 39.312 144.172 39.456 143.724 39.68C143.276 39.904 142.924 40.208 142.668 40.592C142.412 40.976 142.284 41.456 142.284 42.032C142.284 43.152 142.652 43.936 143.388 44.384C144.156 44.8 145.196 45.008 146.508 45.008ZM145.932 24.08C148.044 24.08 149.804 24.32 151.212 24.8C152.62 25.28 153.74 25.968 154.572 26.864C155.436 27.76 156.044 28.848 156.396 30.128C156.748 31.408 156.924 32.832 156.924 34.4V49.28C155.9 49.504 154.476 49.76 152.652 50.048C150.828 50.368 148.62 50.528 146.028 50.528C144.396 50.528 142.908 50.384 141.564 50.096C140.252 49.808 139.116 49.344 138.156 48.704C137.196 48.032 136.46 47.168 135.948 46.112C135.436 45.056 135.18 43.76 135.18 42.224C135.18 40.752 135.468 39.504 136.044 38.48C136.652 37.456 137.452 36.64 138.444 36.032C139.436 35.424 140.572 34.992 141.852 34.736C143.132 34.448 144.46 34.304 145.836 34.304C146.764 34.304 147.58 34.352 148.284 34.448C149.02 34.512 149.612 34.608 150.06 34.736V34.064C150.06 32.848 149.692 31.872 148.956 31.136C148.22 30.4 146.94 30.032 145.116 30.032C143.9 30.032 142.7 30.128 141.516 30.32C140.332 30.48 139.308 30.72 138.444 31.04L137.532 25.28C137.948 25.152 138.46 25.024 139.068 24.896C139.708 24.736 140.396 24.608 141.132 24.512C141.868 24.384 142.636 24.288 143.436 24.224C144.268 24.128 145.1 24.08 145.932 24.08ZM179.567 37.568C179.567 35.36 179.071 33.6 178.079 32.288C177.087 30.944 175.615 30.272 173.663 30.272C173.023 30.272 172.431 30.304 171.887 30.368C171.343 30.4 170.895 30.448 170.543 30.512V43.424C170.991 43.712 171.567 43.952 172.271 44.144C173.007 44.336 173.743 44.432 174.479 44.432C177.871 44.432 179.567 42.144 179.567 37.568ZM186.863 37.376C186.863 39.328 186.623 41.104 186.143 42.704C185.663 44.304 184.959 45.68 184.031 46.832C183.103 47.984 181.951 48.88 180.575 49.52C179.199 50.16 177.615 50.48 175.823 50.48C174.831 50.48 173.903 50.384 173.039 50.192C172.175 50 171.343 49.728 170.543 49.376V58.88H163.391V25.616C164.031 25.424 164.767 25.248 165.599 25.088C166.431 24.896 167.295 24.736 168.191 24.608C169.119 24.48 170.047 24.384 170.975 24.32C171.935 24.224 172.847 24.176 173.711 24.176C175.791 24.176 177.647 24.496 179.279 25.136C180.911 25.744 182.287 26.624 183.407 27.776C184.527 28.896 185.375 30.272 185.951 31.904C186.559 33.536 186.863 35.36 186.863 37.376ZM199.512 50H192.36V24.752H199.512V50ZM200.184 17.456C200.184 18.768 199.752 19.808 198.888 20.576C198.056 21.312 197.064 21.68 195.912 21.68C194.76 21.68 193.752 21.312 192.888 20.576C192.056 19.808 191.64 18.768 191.64 17.456C191.64 16.144 192.056 15.12 192.888 14.384C193.752 13.616 194.76 13.232 195.912 13.232C197.064 13.232 198.056 13.616 198.888 14.384C199.752 15.12 200.184 16.144 200.184 17.456ZM216.267 32.432L221.259 24.752H228.651L220.011 36.896C221.931 39.296 223.675 41.632 225.243 43.904C226.811 46.176 228.059 48.208 228.987 50H221.307C221.051 49.52 220.731 48.928 220.347 48.224C219.963 47.488 219.531 46.736 219.051 45.968C218.571 45.168 218.059 44.384 217.515 43.616C217.003 42.816 216.491 42.096 215.979 41.456C215.499 42.064 215.003 42.736 214.491 43.472C214.011 44.208 213.547 44.96 213.099 45.728C212.651 46.464 212.203 47.2 211.755 47.936C211.339 48.672 210.971 49.36 210.651 50H203.355C203.739 49.2 204.267 48.256 204.939 47.168C205.611 46.08 206.331 44.96 207.099 43.808C207.899 42.624 208.731 41.456 209.595 40.304C210.459 39.12 211.307 38.016 212.139 36.992C210.699 34.976 209.259 32.944 207.819 30.896C206.379 28.816 204.955 26.768 203.547 24.752H211.275L216.267 32.432Z" fill="black"/>
<path d="M35.6229 0.914569C33.1642 1.12532 30.9965 2.1088 29.0897 3.85499C27.6747 5.15961 5.60652 27.1877 4.14133 28.7632C2.73635 30.2585 2.09408 31.1718 1.55216 32.4262C0.518494 34.8348 0.337854 37.3838 1.02027 39.9429C1.33137 41.097 2.09408 42.6725 2.76646 43.5557C3.5392 44.5592 29.3005 70.3305 30.0833 70.8725C32.1506 72.3276 34.1778 72.9799 36.5963 73C38.0916 73 39.0149 72.8495 40.3597 72.3878C41.4636 72.0065 42.3467 71.5549 43.27 70.8925C44.1631 70.2603 70.2957 44.0574 70.8076 43.2847C71.7007 41.9399 72.3831 40.2439 72.634 38.7687C72.7946 37.7953 72.7745 35.9186 72.5839 34.915C72.2828 33.3094 71.7007 31.8943 70.7775 30.5596C70.4061 30.0277 66.6328 26.1741 57.2094 16.7406C50.034 9.54515 43.9123 3.47364 43.6012 3.24282C41.313 1.46652 38.5432 0.66368 35.6229 0.914569ZM30.1234 17.3629C30.5047 17.4231 30.866 17.5134 30.9162 17.5636C30.9764 17.6238 31.1069 17.6639 31.2273 17.6639C31.428 17.6639 32.0402 17.9449 32.7527 18.3664C32.9635 18.4969 33.4652 18.9384 33.8767 19.3499C36.3956 21.919 36.3555 26.0135 33.7964 28.6529C32.5219 29.9675 30.5549 30.7101 28.7385 30.5797C26.9622 30.4492 25.6174 29.8571 24.4433 28.693C23.2992 27.5489 22.8978 26.7561 22.4863 24.8092C22.3258 24.0265 22.3258 23.9462 22.4863 23.1534C22.9078 21.1864 23.3193 20.3334 24.363 19.2796C25.8583 17.7542 27.9758 17.0618 30.1234 17.3629ZM45.2269 17.3729C45.5882 17.4231 45.9194 17.5134 45.9796 17.5736C46.0298 17.6238 46.1502 17.6639 46.2505 17.6639C46.7122 17.6639 47.9064 18.4367 48.7594 19.2897C49.2512 19.7814 49.6426 20.223 49.6426 20.2732C49.6426 20.3334 49.7329 20.504 49.8433 20.6545C49.9436 20.8051 50.1744 21.3169 50.3451 21.7986C50.616 22.5813 50.6461 22.7821 50.6461 23.906C50.6461 25.311 50.4554 26.0737 49.8031 27.2479C49.4117 27.9303 48.0569 29.3553 47.5853 29.5761C47.4247 29.6464 47.214 29.7467 47.1337 29.7969C46.1703 30.379 44.4241 30.7001 43.2499 30.5195C42.417 30.389 41.5238 30.1381 41.3733 29.9976C41.313 29.9474 41.2127 29.9073 41.1324 29.9073C40.9217 29.9073 39.7074 29.0744 39.3561 28.683C38.5934 27.8701 37.7002 26.4149 37.7002 26.0135C37.7002 25.9031 37.63 25.6522 37.5497 25.4616C37.339 24.9598 37.349 23.043 37.5597 22.2903C37.7304 21.648 38.4931 20.0725 38.6235 20.0725C38.6637 20.0725 38.7038 20.0122 38.7038 19.942C38.7038 19.8717 39.035 19.5004 39.4364 19.1291C41.0622 17.6037 43.0091 17.0116 45.2269 17.3729ZM22.9881 30.3589C23.3193 30.4492 23.6906 30.5496 23.801 30.5998C26.2697 31.6033 27.6245 33.1689 28.1765 35.6276C28.4274 36.7616 28.3973 37.3938 28.0159 38.7185C27.3837 40.9665 25.8282 42.5722 23.5702 43.2747C22.6168 43.5757 20.6699 43.5757 19.7165 43.2747C18.2513 42.813 17.1575 42.0202 16.2342 40.7457C15.8528 40.2138 15.2206 38.8891 15.2206 38.6182C15.2206 38.5178 15.1503 38.4074 15.0701 38.3773C14.8493 38.287 14.8493 35.477 15.0701 35.3867C15.1503 35.3566 15.2206 35.2462 15.2206 35.1358C15.2206 35.0355 15.4414 34.5036 15.7123 33.9516C16.5453 32.3158 17.5689 31.4026 19.4857 30.5998C20.409 30.2084 21.9645 30.108 22.9881 30.3589ZM53.155 30.3589C54.1786 30.6299 55.3528 31.3022 56.1155 32.0649C57.0187 32.9681 57.099 33.0785 57.5104 33.9416C58.0423 35.0656 58.2029 35.8584 58.1427 37.0627C58.0825 38.3472 57.9921 38.7286 57.5305 39.702C56.4166 42.0403 54.1786 43.4453 51.5393 43.4553C47.7759 43.4553 44.9258 40.6052 44.9258 36.8419C44.9359 33.781 46.6419 31.4729 49.6426 30.4492C50.4454 30.1682 52.2819 30.1281 53.155 30.3589ZM44.8857 43.2044C46.3609 43.3449 47.6957 44.0073 48.8196 45.1513C49.6426 45.9943 49.8935 46.3757 50.335 47.4996C50.6361 48.2423 50.6461 48.3426 50.6461 49.7777C50.6461 51.1425 50.626 51.3433 50.3952 51.9554C49.8533 53.3704 49.0806 54.384 47.8863 55.2471C47.1036 55.8091 46.2907 56.1302 45.1165 56.361C44.2234 56.5316 44.1431 56.5316 43.1395 56.361C41.1625 56.0299 39.8278 55.217 38.7138 53.6916C36.7168 50.9418 37.0379 47.4495 39.5167 44.9506C40.2894 44.1678 42.0858 43.2747 42.9689 43.2446C43.1897 43.2345 43.5108 43.1944 43.6714 43.1542C43.842 43.1141 44.0226 43.094 44.0829 43.1041C44.1431 43.1241 44.5044 43.1643 44.8857 43.2044ZM31.2072 43.4955C34.0473 44.5291 35.7935 46.9376 35.7935 49.8279C35.7935 52.9891 33.6459 55.6284 30.5047 56.341C29.5012 56.5618 28.6482 56.5417 27.5543 56.2607C26.0189 55.8693 24.9149 55.1568 23.8712 53.8923C22.8476 52.668 22.3458 50.6709 22.5967 48.9247C22.7774 47.7405 22.8978 47.3391 23.2992 46.6165C24.0017 45.3721 24.8146 44.5994 26.1092 43.937C27.3034 43.3349 27.5744 43.2747 29.1299 43.2646C30.3843 43.2546 30.6252 43.2847 31.2072 43.4955Z" fill="#F04F23"/>
</svg>
