<svg width="252" height="132" viewBox="0 0 252 132" fill="none" xmlns="http://www.w3.org/2000/svg">
<g id="Group 1">
<path id="Vector 3 (Stroke)" fill-rule="evenodd" clip-rule="evenodd" d="M80.8911 1.01142C81.0574 1.71662 80.6195 2.4229 79.913 2.58895C77.6177 3.12837 75.1867 3.90171 72.6188 4.93152C70.2278 5.89034 68.2081 7.08284 66.5313 8.46115C65.971 8.92172 65.1427 8.84174 64.6813 8.2825C64.2198 7.72327 64.3 6.89655 64.8603 6.43598C66.7644 4.87077 69.0223 3.54638 71.6388 2.49709C74.3161 1.42343 76.8734 0.607987 79.3105 0.0352155C80.0171 -0.130833 80.7247 0.30623 80.8911 1.01142ZM93.7786 0.952308C93.9888 0.258857 94.7224 -0.13326 95.4172 0.076491C100.922 1.73832 105.203 5.22282 108.271 9.92365C108.667 10.5307 108.495 11.3434 107.887 11.7388C107.278 12.1341 106.464 11.9625 106.068 11.3555C103.3 7.11371 99.5035 4.05113 94.6561 2.5877C93.9614 2.37795 93.5685 1.64576 93.7786 0.952308ZM58.9044 18.7958C59.6232 18.8963 60.1243 19.5594 60.0236 20.2769C59.4307 24.502 60.0231 29.2568 61.7355 34.2317C61.9714 34.9169 61.6061 35.6631 60.9196 35.8985C60.2331 36.1339 59.4854 35.7693 59.2496 35.0842C57.4354 29.8136 56.7576 24.6361 57.4205 19.9129C57.5212 19.1954 58.1855 18.6953 58.9044 18.7958ZM112.141 23.9407C112.859 23.8356 113.526 24.3315 113.632 25.0484C114.36 30.0043 114.397 35.394 113.763 40.9702C113.681 41.6901 113.03 42.2074 112.308 42.1256C111.587 42.0439 111.069 41.394 111.151 40.6742C111.763 35.2928 111.722 30.1325 111.031 25.4289C110.926 24.7121 111.422 24.0458 112.141 23.9407ZM230.127 38.4091C230.634 38.928 230.623 39.7585 230.103 40.2641C228.259 42.0575 226.418 43.7875 224.582 45.4556C224.045 45.9431 223.213 45.904 222.725 45.3681C222.236 44.8323 222.276 44.0026 222.813 43.515C224.627 41.8675 226.446 40.1581 228.268 38.3851C228.788 37.8795 229.62 37.8902 230.127 38.4091ZM66.5626 46.7187C67.1591 46.3059 67.978 46.4538 68.3916 47.0492C71.0115 50.8202 74.1926 54.5296 77.8817 58.0369C78.4073 58.5366 78.4275 59.3669 77.9269 59.8915C77.4262 60.4161 76.5943 60.4362 76.0687 59.9366C72.2571 56.3128 68.9582 52.4688 66.2315 48.5442C65.8179 47.9488 65.9661 47.1315 66.5626 46.7187ZM213.411 53.2259C213.858 53.7969 213.757 54.6212 213.185 55.0671C209.113 58.2409 205.067 61.1193 201.054 63.719C200.445 64.1135 199.631 63.9406 199.236 63.3329C198.841 62.7252 199.014 61.9128 199.623 61.5184C203.569 58.9617 207.553 56.1279 211.567 52.9994C212.139 52.5535 212.965 52.6549 213.411 53.2259ZM109.537 54.7903C110.228 55.0119 110.608 55.7508 110.386 56.4405C108.802 61.3599 106.729 66.2674 104.17 71.0096C103.826 71.6475 103.029 71.8861 102.39 71.5426C101.751 71.1991 101.512 70.4035 101.856 69.7657C104.337 65.1669 106.348 60.4074 107.883 55.638C108.105 54.9482 108.845 54.5687 109.537 54.7903ZM87.4953 67.469C87.8951 66.8643 88.7103 66.6975 89.3161 67.0965C93.2676 69.6989 97.5571 72.0516 102.149 74.0651C102.813 74.3565 103.115 75.1304 102.823 75.7937C102.531 76.457 101.756 76.7585 101.092 76.467C96.3616 74.393 91.9417 71.9689 87.8685 69.2863C87.2626 68.8873 87.0955 68.0737 87.4953 67.469ZM188.697 69.4468C189.028 70.0913 188.774 70.882 188.128 71.2129C183.487 73.5903 178.903 75.605 174.387 77.2845C173.707 77.5374 172.95 77.1921 172.697 76.5133C172.443 75.8344 172.789 75.079 173.469 74.826C177.886 73.1835 182.376 71.2106 186.928 68.8788C187.573 68.548 188.365 68.8023 188.697 69.4468ZM114.368 79.745C114.546 79.0425 115.26 78.6166 115.964 78.7938C120.559 79.9502 125.369 80.767 130.368 81.18C131.092 81.2397 131.63 81.8735 131.57 82.5955C131.51 83.3175 130.875 83.8543 130.152 83.7946C125.006 83.3696 120.053 82.5288 115.321 81.3377C114.617 81.1605 114.191 80.4475 114.368 79.745ZM161.061 80.0024C161.223 80.7088 160.78 81.4119 160.072 81.5728C154.992 82.7276 150.023 83.4666 145.183 83.834C144.46 83.8889 143.828 83.3479 143.773 82.6255C143.718 81.9031 144.26 81.2729 144.984 81.218C149.693 80.8605 154.534 80.141 159.488 79.0148C160.196 78.8539 160.9 79.2961 161.061 80.0024ZM95.1841 82.3407C95.7466 82.7986 95.8308 83.6249 95.3721 84.1864C92.0602 88.2401 88.3139 92.0149 84.136 95.3777C83.5709 95.8325 82.7435 95.744 82.2879 95.1801C81.8322 94.6161 81.9209 93.7903 82.4859 93.3355C86.5134 90.0937 90.1314 86.4496 93.3349 82.5284C93.7936 81.9669 94.6215 81.8829 95.1841 82.3407ZM0.590108 101.622C0.853746 100.947 1.61571 100.613 2.29199 100.876C4.79389 101.85 7.25287 102.72 9.66884 103.493C10.3601 103.714 10.7409 104.453 10.5194 105.143C10.2978 105.833 9.55793 106.213 8.86669 105.992C6.39778 105.202 3.88792 104.313 1.33728 103.32C0.66099 103.057 0.32647 102.297 0.590108 101.622ZM71.3403 102.14C71.658 102.791 71.3865 103.576 70.7338 103.893C66.0986 106.145 61.1008 107.933 55.7451 109.152C55.0374 109.313 54.3329 108.871 54.1715 108.164C54.0101 107.458 54.453 106.755 55.1607 106.594C60.3176 105.42 65.1257 103.7 69.5833 101.534C70.236 101.217 71.0226 101.488 71.3403 102.14ZM23.1016 108.232C23.2213 107.517 23.8988 107.035 24.6147 107.154C29.9679 108.048 35.0734 108.433 39.9304 108.37C40.6562 108.36 41.2523 108.94 41.2617 109.664C41.2712 110.389 40.6905 110.984 39.9647 110.993C34.9441 111.058 29.6819 110.661 24.181 109.742C23.465 109.622 22.9818 108.946 23.1016 108.232Z" fill="black"/>
<path id="Vector (Stroke)" fill-rule="evenodd" clip-rule="evenodd" d="M251.114 16.3861C251.472 16.7442 251.593 17.2757 251.426 17.7537L242.199 44.1173C242.02 44.6274 241.548 44.9769 241.008 44.9989C240.468 45.0209 239.969 44.7111 239.75 44.2172L234.683 32.8169L223.283 27.75C222.789 27.5305 222.479 27.0318 222.501 26.4917C222.523 25.9517 222.873 25.4798 223.383 25.3013L249.746 16.074C250.224 15.9068 250.756 16.0281 251.114 16.3861ZM237.254 32.1101L240.809 40.1081L247.029 22.3348L237.254 32.1101ZM245.165 20.4706L227.392 26.6913L235.39 30.2459L245.165 20.4706Z" fill="#1A202C"/>
<path id="Vector (Stroke)_2" fill-rule="evenodd" clip-rule="evenodd" d="M198.048 89.6471C195.878 89.6471 194.119 91.4248 194.119 93.6176V95.5376L216.998 110.231C216.999 110.232 217 110.233 217.001 110.233C217.6 110.612 218.293 110.813 219 110.813C219.707 110.813 220.4 110.612 220.999 110.233C221 110.233 221.001 110.232 221.002 110.231L243.881 95.5376V93.6176C243.881 91.4248 242.122 89.6471 239.952 89.6471H198.048ZM246.5 96.2424V93.6176C246.5 89.9628 243.568 87 239.952 87H198.048C194.432 87 191.5 89.9628 191.5 93.6176V96.2424C191.5 96.2564 191.5 96.2705 191.5 96.2845V125.382C191.5 129.037 194.432 132 198.048 132H239.952C243.568 132 246.5 129.037 246.5 125.382V96.2846C246.5 96.2705 246.5 96.2564 246.5 96.2424ZM243.881 98.6739L222.393 112.475C221.376 113.119 220.2 113.46 219 113.46C217.8 113.46 216.624 113.118 215.607 112.475L215.6 112.47L194.119 98.6739V125.382C194.119 127.575 195.878 129.353 198.048 129.353H239.952C242.122 129.353 243.881 127.575 243.881 125.382V98.6739Z" fill="#0E1C2B"/>
</g>
</svg>
