<svg width="110" height="110" viewBox="0 0 110 110" fill="none" xmlns="http://www.w3.org/2000/svg">
<g id="icon/clock-2">
<path id="Vector (Stroke)" fill-rule="evenodd" clip-rule="evenodd" d="M55.0002 13.75C32.2184 13.75 13.7502 32.2183 13.7502 55C13.7502 77.7818 32.2184 96.25 55.0002 96.25C77.7819 96.25 96.2502 77.7818 96.2502 55C96.2502 32.2183 77.7819 13.75 55.0002 13.75ZM4.5835 55C4.5835 27.1557 27.1558 4.58337 55.0002 4.58337C82.8445 4.58337 105.417 27.1557 105.417 55C105.417 82.8444 82.8445 105.417 55.0002 105.417C27.1558 105.417 4.5835 82.8444 4.5835 55ZM55.0002 22.9167C57.5315 22.9167 59.5835 24.9687 59.5835 27.5V47.584L71.2838 41.7339C73.5478 40.6019 76.3009 41.5196 77.433 43.7836C78.565 46.0477 77.6473 48.8008 75.3832 49.9328L57.0499 59.0995C55.6291 59.8099 53.9418 59.734 52.5906 58.8989C51.2393 58.0637 50.4168 56.5885 50.4168 55V27.5C50.4168 24.9687 52.4689 22.9167 55.0002 22.9167Z" fill="#0E1C2B"/>
</g>
</svg>
