<svg width="110" height="110" viewBox="0 0 110 110" fill="none" xmlns="http://www.w3.org/2000/svg">
<g id="icon-check-circle">
<g id="Shape">
<path d="M45.9095 14.7379C54.586 12.7775 63.6638 13.6744 71.7889 17.2948C74.1011 18.325 76.8107 17.2858 77.8409 14.9737C78.8711 12.6615 77.8319 9.95194 75.5198 8.9217C65.589 4.49681 54.4939 3.40062 43.8893 5.7966C33.2846 8.19258 23.7386 13.9524 16.6748 22.2169C9.61108 30.4815 5.40812 40.808 4.69278 51.6564C3.97744 62.5048 6.78805 73.2939 12.7054 82.4144C18.6228 91.5349 27.3299 98.4983 37.5281 102.266C47.7264 106.034 58.8693 106.404 69.2951 103.321C79.7209 100.239 88.8709 93.8686 95.3806 85.1609C101.89 76.4532 105.411 65.8745 105.417 55.0025V50.7832C105.417 48.2519 103.365 46.1999 100.834 46.1999C98.3022 46.1999 96.2502 48.2519 96.2502 50.7832V54.9973C96.2451 63.8925 93.3647 72.5478 88.0387 79.6723C82.7126 86.7968 75.2262 92.0088 66.696 94.5309C58.1658 97.053 49.0489 96.7501 40.7049 93.6674C32.3609 90.5848 25.2369 84.8874 20.3954 77.4252C15.5539 69.9629 13.2543 61.1356 13.8396 52.2596C14.4249 43.3836 17.8636 34.9346 23.6431 28.1727C29.4225 21.4108 37.2329 16.6982 45.9095 14.7379Z" fill="#1A202C"/>
<path d="M104.076 21.5726C105.865 19.7818 105.864 16.8798 104.073 15.0908C102.282 13.3018 99.38 13.3032 97.591 15.094L54.9985 57.729L44.4911 47.2216C42.7012 45.4317 39.7992 45.4317 38.0093 47.2216C36.2194 49.0115 36.2194 51.9135 38.0093 53.7034L51.7593 67.4534C52.6191 68.3132 53.7853 68.7961 55.0013 68.7958C56.2173 68.7955 57.3833 68.312 58.2427 67.4518L104.076 21.5726Z" fill="#1A202C"/>
</g>
</g>
</svg>
