<svg width="148" height="148" viewBox="0 0 148 148" fill="none" xmlns="http://www.w3.org/2000/svg">
<path id="Vector" d="M0 49.3333H49.3333V0H0V49.3333ZM8.22222 8.22222H41.1111V41.1111H8.22222V8.22222ZM16.4444 16.4444H32.8889V32.8889H16.4444V16.4444ZM98.6667 49.3333H148V0H98.6667V49.3333ZM106.889 8.22222H139.778V41.1111H106.889V8.22222ZM115.111 16.4444H131.556V32.8889H115.111V16.4444ZM0 148H49.3333V98.6667H0V148ZM8.22222 106.889H41.1111V139.778H8.22222V106.889ZM16.4444 115.111H32.8889V131.556H16.4444V115.111ZM139.778 131.556H148V148H131.556V123.333H139.778V131.556ZM139.778 106.889H148V115.111H139.778V106.889ZM139.778 98.6667V106.889H131.556V98.6667H139.778ZM57.5556 115.111H65.7778V148H57.5556V115.111ZM24.6667 57.5556V74H8.22222V65.7778H0V57.5556H24.6667ZM57.5556 32.8889H65.7778V41.1111H57.5556V32.8889ZM82.2222 8.22222V24.6667H74V0H90.4444V8.22222H82.2222ZM57.5556 8.22222H65.7778V16.4444H57.5556V8.22222ZM139.778 74H148V90.4444H131.556V82.2222H139.778V74ZM131.556 57.5556V65.7778H115.111V82.2222H98.6667V74H106.889V57.5556H131.556ZM74 90.4444H65.7778V82.2222H57.5556V74H74V90.4444ZM123.333 106.889H131.556V115.111H123.333V106.889ZM139.778 65.7778V74H131.556V65.7778H139.778ZM65.7778 90.4444V98.6667H57.5556V90.4444H65.7778ZM115.111 131.556H123.333V148H106.889V131.556H115.111ZM90.4444 131.556H98.6667V139.778H90.4444V148H74V139.778H82.2222V131.556H90.4444ZM90.4444 123.333V115.111H106.889V123.333H90.4444ZM90.4444 82.2222H98.6667V106.889H90.4444V115.111H82.2222V123.333H74V106.889H65.7778V98.6667H90.4444V90.4444H82.2222V82.2222H90.4444ZM16.4444 82.2222V90.4444H8.22222V82.2222H16.4444ZM115.111 115.111H106.889V106.889H115.111V115.111ZM123.333 98.6667H106.889V90.4444H123.333V98.6667ZM41.1111 57.5556H49.3333V65.7778H41.1111V74H49.3333V90.4444H41.1111V82.2222H32.8889V90.4444H24.6667V74H32.8889V57.5556H41.1111ZM65.7778 57.5556V41.1111H90.4444V65.7778H74V57.5556H82.2222V49.3333H74V57.5556H65.7778ZM65.7778 24.6667H74V32.8889H65.7778V24.6667ZM57.5556 57.5556H65.7778V65.7778H57.5556V57.5556ZM82.2222 32.8889V24.6667H90.4444V32.8889H82.2222Z" fill="black"/>
</svg>
