<svg width="58" height="38" viewBox="0 0 58 38" fill="none" xmlns="http://www.w3.org/2000/svg">
<path d="M19.5 20.5V20.2293C19.5 17.9669 18.0142 16.0991 16.0052 15.4415C17.1659 14.4659 17.9118 13.0107 17.9118 11.359C17.9118 9.1818 16.6157 7.34596 14.7819 6.5H32C32.8284 6.5 33.5 7.17157 33.5 8V8.49982C33.0822 8.18597 32.5628 8 32 8H22C20.6193 8 19.5 9.11929 19.5 10.5C19.5 11.8807 20.6193 13 22 13C20.6193 13 19.5 14.1193 19.5 15.5C19.5 16.8807 20.6193 18 22 18C20.6193 18 19.5 19.1193 19.5 20.5ZM19.5 20.5V21.5C19.5 22.3178 19.1073 23.0439 18.5002 23.5H32C32.6215 23.5 33.1547 23.122 33.3823 22.5834C32.9864 22.8466 32.5111 23 32 23H22C20.6193 23 19.5 21.8807 19.5 20.5ZM6.5 8C6.5 7.17157 7.17157 6.5 8 6.5H10.2181C8.38429 7.34596 7.08824 9.1818 7.08824 11.359C7.08824 13.0107 7.83411 14.4659 8.99479 15.4415C7.9935 15.7693 7.12218 16.3976 6.5 17.2256V8ZM32 13C32.5628 13 33.0822 12.814 33.5 12.5002V18.4998C33.0822 18.186 32.5628 18 32 18H30C31.3807 18 32.5 16.8807 32.5 15.5C32.5 14.1193 31.3807 13 30 13H32ZM14.5 21.5C14.5 22.3178 14.8927 23.0439 15.4998 23.5H9.50024C10.1073 23.0439 10.5 22.3178 10.5 21.5V20.23C10.5001 20.2299 10.5001 20.2298 10.5002 20.2296C10.5012 20.2272 10.5044 20.2213 10.5115 20.2143C10.5185 20.2075 10.5275 20.2012 10.5386 20.1966C10.5485 20.1924 10.564 20.188 10.5882 20.188H14.4118C14.436 20.188 14.4515 20.1924 14.4614 20.1966C14.4725 20.2012 14.4815 20.2075 14.4885 20.2143C14.4956 20.2213 14.4988 20.2272 14.4998 20.2296C14.4999 20.2298 14.4999 20.2299 14.5 20.23V21.5ZM8 1.5C4.41015 1.5 1.5 4.41015 1.5 8V22C1.5 25.5898 4.41015 28.5 8 28.5H32C35.5899 28.5 38.5 25.5898 38.5 22V8C38.5 4.41015 35.5899 1.5 32 1.5H8ZM12.0882 11.359C12.0882 11.1995 12.2335 11 12.5 11C12.7665 11 12.9118 11.1995 12.9118 11.359C12.9118 11.5185 12.7665 11.718 12.5 11.718C12.2335 11.718 12.0882 11.5185 12.0882 11.359Z" fill="#A0ABC0" stroke="white" stroke-width="3" stroke-linecap="round"/>
<path d="M24.5 16C24.5 15.1716 25.1716 14.5 26 14.5H50C50.8284 14.5 51.5 15.1716 51.5 16V16.4998C51.0822 16.186 50.5628 16 50 16H26C25.4372 16 24.9178 16.186 24.5 16.4998V16ZM50 21C50.5628 21 51.0822 20.814 51.5 20.5002V26.4998C51.0822 26.186 50.5628 26 50 26H42C43.3807 26 44.5 24.8807 44.5 23.5C44.5 22.1193 43.3807 21 42 21H50ZM50 31C50.5111 31 50.9864 30.8466 51.3823 30.5834C51.1547 31.122 50.6215 31.5 50 31.5H26C25.3785 31.5 24.8453 31.122 24.6177 30.5834C25.0136 30.8466 25.4889 31 26 31H50ZM26 26C25.4372 26 24.9178 26.186 24.5 26.4998V25.5002C24.9178 25.814 25.4372 26 26 26ZM26 21C25.4372 21 24.9178 21.186 24.5 21.4998V20.5002C24.9178 20.814 25.4372 21 26 21ZM26 9.5C22.4101 9.5 19.5 12.4101 19.5 16V30C19.5 33.5898 22.4101 36.5 26 36.5H50C53.5899 36.5 56.5 33.5898 56.5 30V16C56.5 12.4102 53.5899 9.5 50 9.5H26Z" fill="#2D3648" stroke="white" stroke-width="3" stroke-linecap="round"/>
</svg>
