<svg width="55" height="35" viewBox="0 0 55 35" fill="none" xmlns="http://www.w3.org/2000/svg">
<path fill-rule="evenodd" clip-rule="evenodd" d="M26 13C24.3431 13 23 14.3431 23 16V30C23 31.6569 24.3431 33 26 33H50C51.6569 33 53 31.6569 53 30V16C53 14.3431 51.6569 13 50 13H26ZM21 16C21 13.2386 23.2386 11 26 11H50C52.7614 11 55 13.2386 55 16V30C55 32.7614 52.7614 35 50 35H26C23.2386 35 21 32.7614 21 30V16ZM25 18.5C25 17.9477 25.4477 17.5 26 17.5H50C50.5523 17.5 51 17.9477 51 18.5C51 19.0523 50.5523 19.5 50 19.5H26C25.4477 19.5 25 19.0523 25 18.5ZM25 23.5C25 22.9477 25.4477 22.5 26 22.5H42C42.5523 22.5 43 22.9477 43 23.5C43 24.0523 42.5523 24.5 42 24.5H26C25.4477 24.5 25 24.0523 25 23.5ZM25 28.5C25 27.9477 25.4477 27.5 26 27.5H50C50.5523 27.5 51 27.9477 51 28.5C51 29.0523 50.5523 29.5 50 29.5H26C25.4477 29.5 25 29.0523 25 28.5Z" fill="#A0ABC0"/>
<path d="M6.5 8C6.5 7.17157 7.17157 6.5 8 6.5H10.2181C8.38429 7.34596 7.08824 9.1818 7.08824 11.359C7.08824 13.0107 7.83411 14.4659 8.99479 15.4415C7.9935 15.7693 7.12218 16.3976 6.5 17.2256V8ZM17.9118 11.359C17.9118 9.1818 16.6157 7.34596 14.7819 6.5H32C32.8284 6.5 33.5 7.17157 33.5 8V8.49982C33.0822 8.18597 32.5628 8 32 8H21C19.6193 8 18.5 9.11929 18.5 10.5C18.5 11.8807 19.6193 13 21 13C19.6193 13 18.5 14.1193 18.5 15.5C18.5 16.8807 19.6193 18 21 18C20.3254 18 19.7133 18.2672 19.2635 18.7015C18.7681 17.1513 17.5392 15.9436 16.0052 15.4415C17.1659 14.4659 17.9118 13.0107 17.9118 11.359ZM32 13C32.5628 13 33.0822 12.814 33.5 12.5002V18.4998C33.0822 18.186 32.5628 18 32 18H30C31.3807 18 32.5 16.8807 32.5 15.5C32.5 14.1193 31.3807 13 30 13H32ZM32 23C32.5111 23 32.9864 22.8466 33.3823 22.5834C33.1547 23.122 32.6215 23.5 32 23.5H18.5002C18.8795 23.215 19.1751 22.8247 19.3435 22.3725C19.7846 22.763 20.3646 23 21 23H32ZM14.5 21.5C14.5 22.3178 14.8927 23.0439 15.4998 23.5H9.50024C10.1073 23.0439 10.5 22.3178 10.5 21.5V20.23C10.5001 20.2299 10.5001 20.2298 10.5002 20.2296C10.5012 20.2272 10.5044 20.2213 10.5115 20.2143C10.5185 20.2075 10.5275 20.2012 10.5386 20.1966C10.5485 20.1924 10.564 20.188 10.5882 20.188H14.4118C14.436 20.188 14.4515 20.1924 14.4614 20.1966C14.4725 20.2012 14.4815 20.2075 14.4885 20.2143C14.4956 20.2213 14.4988 20.2272 14.4998 20.2296C14.4999 20.2298 14.4999 20.2299 14.5 20.23V21.5ZM8 1.5C4.41015 1.5 1.5 4.41015 1.5 8V22C1.5 25.5898 4.41015 28.5 8 28.5H32C35.5899 28.5 38.5 25.5898 38.5 22V8C38.5 4.41015 35.5899 1.5 32 1.5H8ZM12.0882 11.359C12.0882 11.1995 12.2335 11 12.5 11C12.7665 11 12.9118 11.1995 12.9118 11.359C12.9118 11.5185 12.7665 11.718 12.5 11.718C12.2335 11.718 12.0882 11.5185 12.0882 11.359Z" fill="#2D3648" stroke="white" stroke-width="3" stroke-linecap="round"/>
</svg>
