<svg width="75" height="77" viewBox="0 0 75 77" fill="none" xmlns="http://www.w3.org/2000/svg">
<path fill-rule="evenodd" clip-rule="evenodd" d="M32 5.83337C24.6362 5.83337 18.6667 11.8029 18.6667 19.1667C18.6667 26.5305 24.6362 32.5 32 32.5C39.3638 32.5 45.3333 26.5305 45.3333 19.1667C45.3333 11.8029 39.3638 5.83337 32 5.83337ZM24 19.1667C24 14.7484 27.5817 11.1667 32 11.1667C36.4183 11.1667 40 14.7484 40 19.1667C40 23.585 36.4183 27.1667 32 27.1667C27.5817 27.1667 24 23.585 24 19.1667Z" fill="#2D3648"/>
<path d="M21.3333 37.8334C17.7971 37.8334 14.4057 39.2381 11.9052 41.7386C9.40476 44.2391 8 47.6305 8 51.1667V56.5C8 57.9728 9.19391 59.1667 10.6667 59.1667C12.1394 59.1667 13.3333 57.9728 13.3333 56.5V51.1667C13.3333 49.045 14.1762 47.0101 15.6765 45.5099C17.1768 44.0096 19.2116 43.1667 21.3333 43.1667H42.6667C44.7884 43.1667 46.8232 44.0096 48.3235 45.5099C49.8238 47.0101 50.6667 49.045 50.6667 51.1667V56.5C50.6667 57.9728 51.8606 59.1667 53.3333 59.1667C54.8061 59.1667 56 57.9728 56 56.5V51.1667C56 47.6305 54.5952 44.2391 52.0948 41.7386C49.5943 39.2381 46.2029 37.8334 42.6667 37.8334H21.3333Z" fill="#2D3648"/>
<path d="M41.5 54.5C41.5 53.6716 42.1716 53 43 53H45.2181C43.3843 53.846 42.0882 55.6818 42.0882 57.859C42.0882 59.5107 42.8341 60.9659 43.9948 61.9415C42.9935 62.2693 42.1222 62.8976 41.5 63.7256V54.5ZM52.9118 57.859C52.9118 55.6818 51.6157 53.846 49.7819 53H67C67.8284 53 68.5 53.6716 68.5 54.5V54.9998C68.0822 54.686 67.5628 54.5 67 54.5H56C54.6193 54.5 53.5 55.6193 53.5 57C53.5 58.3807 54.6193 59.5 56 59.5C54.6193 59.5 53.5 60.6193 53.5 62C53.5 63.3807 54.6193 64.5 56 64.5C55.3254 64.5 54.7133 64.7672 54.2635 65.2015C53.7681 63.6513 52.5392 62.4436 51.0052 61.9415C52.1659 60.9659 52.9118 59.5107 52.9118 57.859ZM67 59.5C67.5628 59.5 68.0822 59.314 68.5 59.0002V64.9998C68.0822 64.686 67.5628 64.5 67 64.5H65C66.3807 64.5 67.5 63.3807 67.5 62C67.5 60.6193 66.3807 59.5 65 59.5H67ZM67 69.5C67.5111 69.5 67.9864 69.3466 68.3823 69.0834C68.1547 69.622 67.6215 70 67 70H53.5002C53.8795 69.715 54.1751 69.3247 54.3435 68.8725C54.7846 69.263 55.3646 69.5 56 69.5H67ZM49.5 68C49.5 68.8178 49.8927 69.5439 50.4998 70H44.5002C45.1073 69.5439 45.5 68.8178 45.5 68V66.73C45.5001 66.7299 45.5001 66.7298 45.5002 66.7296C45.5012 66.7272 45.5044 66.7213 45.5115 66.7143C45.5185 66.7075 45.5275 66.7012 45.5386 66.6966C45.5485 66.6924 45.564 66.688 45.5882 66.688H49.4118C49.436 66.688 49.4515 66.6924 49.4614 66.6966C49.4725 66.7012 49.4815 66.7075 49.4885 66.7143C49.4956 66.7213 49.4988 66.7272 49.4998 66.7296C49.4999 66.7298 49.4999 66.7299 49.5 66.73V68ZM43 48C39.4101 48 36.5 50.9101 36.5 54.5V68.5C36.5 72.0898 39.4101 75 43 75H67C70.5899 75 73.5 72.0898 73.5 68.5V54.5C73.5 50.9102 70.5899 48 67 48H43ZM47.0882 57.859C47.0882 57.6995 47.2335 57.5 47.5 57.5C47.7665 57.5 47.9118 57.6995 47.9118 57.859C47.9118 58.0185 47.7665 58.218 47.5 58.218C47.2335 58.218 47.0882 58.0185 47.0882 57.859Z" fill="#2D3648" stroke="white" stroke-width="3" stroke-linecap="round"/>
</svg>
