<svg width="72" height="74" viewBox="0 0 72 74" fill="none" xmlns="http://www.w3.org/2000/svg">
<path fill-rule="evenodd" clip-rule="evenodd" d="M36 10.3334C28.6362 10.3334 22.6667 16.3029 22.6667 23.6667C22.6667 31.0305 28.6362 37 36 37C43.3638 37 49.3333 31.0305 49.3333 23.6667C49.3333 16.3029 43.3638 10.3334 36 10.3334ZM28 23.6667C28 19.2484 31.5817 15.6667 36 15.6667C40.4183 15.6667 44 19.2484 44 23.6667C44 28.085 40.4183 31.6667 36 31.6667C31.5817 31.6667 28 28.085 28 23.6667Z" fill="#2D3648"/>
<path d="M25.3333 42.3334C21.7971 42.3334 18.4057 43.7381 15.9052 46.2386C13.4048 48.7391 12 52.1305 12 55.6667V61C12 62.4728 13.1939 63.6667 14.6667 63.6667C16.1394 63.6667 17.3333 62.4728 17.3333 61V55.6667C17.3333 53.545 18.1762 51.5101 19.6765 50.0099C21.1768 48.5096 23.2116 47.6667 25.3333 47.6667H46.6667C48.7884 47.6667 50.8232 48.5096 52.3235 50.0099C53.8238 51.5101 54.6667 53.545 54.6667 55.6667V61C54.6667 62.4728 55.8606 63.6667 57.3333 63.6667C58.8061 63.6667 60 62.4728 60 61V55.6667C60 52.1305 58.5952 48.7391 56.0948 46.2386C53.5943 43.7381 50.2029 42.3334 46.6667 42.3334H25.3333Z" fill="#2D3648"/>
</svg>
